<svg width="30" height="29" viewBox="0 0 30 29" fill="none" xmlns="http://www.w3.org/2000/svg">
<path d="M9.5125 3.86644C7.71787 3.86644 5.99674 4.57935 4.72774 5.84835C3.45875 7.11735 2.74583 8.83847 2.74583 10.6331V20.2998C2.74583 22.0944 3.45875 23.8155 4.72774 25.0845C5.99674 26.3535 7.71787 27.0664 9.5125 27.0664H19.1792C20.9738 27.0664 22.6949 26.3535 23.9639 25.0845C25.2329 23.8155 25.9458 22.0944 25.9458 20.2998V15.4664C25.9458 15.2101 26.0477 14.9642 26.229 14.7829C26.4102 14.6016 26.6561 14.4998 26.9125 14.4998C27.1689 14.4998 27.4148 14.6016 27.596 14.7829C27.7773 14.9642 27.8792 15.2101 27.8792 15.4664V20.2998C27.8792 22.6072 26.9626 24.82 25.331 26.4516C23.6994 28.0832 21.4866 28.9998 19.1792 28.9998H9.5125C7.20512 28.9998 4.99224 28.0832 3.36067 26.4516C1.7291 24.82 0.8125 22.6072 0.8125 20.2998V10.6331C0.8125 8.32572 1.7291 6.11284 3.36067 4.48128C4.99224 2.84971 7.20512 1.93311 9.5125 1.93311H14.3458C14.6022 1.93311 14.8481 2.03495 15.0294 2.21624C15.2107 2.39752 15.3125 2.6434 15.3125 2.89977C15.3125 3.15615 15.2107 3.40202 15.0294 3.58331C14.8481 3.76459 14.6022 3.86644 14.3458 3.86644H9.5125Z" fill="#F7EBFF"/>
<path d="M29.8124 5.8C29.8124 7.33826 29.2013 8.81351 28.1136 9.90122C27.0259 10.9889 25.5507 11.6 24.0124 11.6C22.4741 11.6 20.9989 10.9889 19.9112 9.90122C18.8235 8.81351 18.2124 7.33826 18.2124 5.8C18.2124 4.26174 18.8235 2.78649 19.9112 1.69878C20.9989 0.61107 22.4741 0 24.0124 0C25.5507 0 27.0259 0.61107 28.1136 1.69878C29.2013 2.78649 29.8124 4.26174 29.8124 5.8Z" fill="#00C8A0"/>
</svg>
