<svg width="25" height="25" viewBox="0 0 25 25" fill="none" xmlns="http://www.w3.org/2000/svg">
<path d="M4.6875 6.25C4.6875 5.8356 4.85212 5.43817 5.14515 5.14515C5.43817 4.85212 5.8356 4.6875 6.25 4.6875H9.375C9.7894 4.6875 10.1868 4.85212 10.4799 5.14515C10.7729 5.43817 10.9375 5.8356 10.9375 6.25V9.375C10.9375 9.7894 10.7729 10.1868 10.4799 10.4799C10.1868 10.7729 9.7894 10.9375 9.375 10.9375H6.25C5.8356 10.9375 5.43817 10.7729 5.14515 10.4799C4.85212 10.1868 4.6875 9.7894 4.6875 9.375V6.25ZM4.6875 15.625C4.6875 15.2106 4.85212 14.8132 5.14515 14.5201C5.43817 14.2271 5.8356 14.0625 6.25 14.0625H9.375C9.7894 14.0625 10.1868 14.2271 10.4799 14.5201C10.7729 14.8132 10.9375 15.2106 10.9375 15.625V18.75C10.9375 19.1644 10.7729 19.5618 10.4799 19.8549C10.1868 20.1479 9.7894 20.3125 9.375 20.3125H6.25C5.8356 20.3125 5.43817 20.1479 5.14515 19.8549C4.85212 19.5618 4.6875 19.1644 4.6875 18.75V15.625ZM14.0625 6.25C14.0625 5.8356 14.2271 5.43817 14.5201 5.14515C14.8132 4.85212 15.2106 4.6875 15.625 4.6875H18.75C19.1644 4.6875 19.5618 4.85212 19.8549 5.14515C20.1479 5.43817 20.3125 5.8356 20.3125 6.25V9.375C20.3125 9.7894 20.1479 10.1868 19.8549 10.4799C19.5618 10.7729 19.1644 10.9375 18.75 10.9375H15.625C15.2106 10.9375 14.8132 10.7729 14.5201 10.4799C14.2271 10.1868 14.0625 9.7894 14.0625 9.375V6.25ZM14.0625 15.625C14.0625 15.2106 14.2271 14.8132 14.5201 14.5201C14.8132 14.2271 15.2106 14.0625 15.625 14.0625H18.75C19.1644 14.0625 19.5618 14.2271 19.8549 14.5201C20.1479 14.8132 20.3125 15.2106 20.3125 15.625V18.75C20.3125 19.1644 20.1479 19.5618 19.8549 19.8549C19.5618 20.1479 19.1644 20.3125 18.75 20.3125H15.625C15.2106 20.3125 14.8132 20.1479 14.5201 19.8549C14.2271 19.5618 14.0625 19.1644 14.0625 18.75V15.625ZM0 4.6875C0 3.4443 0.49386 2.25201 1.37294 1.37294C2.25201 0.49386 3.4443 0 4.6875 0H20.3125C21.5557 0 22.748 0.49386 23.6271 1.37294C24.5061 2.25201 25 3.4443 25 4.6875V20.3125C25 21.5557 24.5061 22.748 23.6271 23.6271C22.748 24.5061 21.5557 25 20.3125 25H4.6875C3.4443 25 2.25201 24.5061 1.37294 23.6271C0.49386 22.748 0 21.5557 0 20.3125V4.6875ZM4.6875 1.5625C3.8587 1.5625 3.06384 1.89174 2.47779 2.47779C1.89174 3.06384 1.5625 3.8587 1.5625 4.6875V20.3125C1.5625 21.1413 1.89174 21.9362 2.47779 22.5222C3.06384 23.1083 3.8587 23.4375 4.6875 23.4375H20.3125C21.1413 23.4375 21.9362 23.1083 22.5222 22.5222C23.1083 21.9362 23.4375 21.1413 23.4375 20.3125V4.6875C23.4375 3.8587 23.1083 3.06384 22.5222 2.47779C21.9362 1.89174 21.1413 1.5625 20.3125 1.5625H4.6875Z" fill="white"/>
</svg>
