<svg width="31" height="31" viewBox="0 0 31 31" fill="none" xmlns="http://www.w3.org/2000/svg">
<path d="M15.5 20.6666C8.06005 20.6666 6.74255 13.2525 6.51005 7.37022C6.44417 5.73497 6.41188 4.91605 7.02671 4.16043C7.64025 3.40351 8.37521 3.27951 9.84642 3.03151C11.7152 2.72538 13.6063 2.57546 15.5 2.5833C17.8044 2.5833 19.7018 2.78609 21.1537 3.03151C22.6249 3.27951 23.3598 3.40351 23.9747 4.16043C24.5895 4.91734 24.5559 5.73497 24.4913 7.37022C24.2588 13.2525 22.9413 20.6666 15.5013 20.6666H15.5Z" stroke="#00C8A0" stroke-width="1.5"/>
<path d="M24.5418 6.45825L25.7676 6.86642C27.0464 7.29267 27.6857 7.50579 28.0513 8.01342C28.4168 8.52104 28.4168 9.19658 28.4168 10.5425V10.6368C28.4168 11.7476 28.4168 12.3043 28.1495 12.759C27.8821 13.2137 27.3951 13.4836 26.4238 14.0248L22.6043 16.1458M6.4585 6.45825L5.2327 6.86642C3.95395 7.29267 3.31458 7.50579 2.94904 8.01342C2.5835 8.52104 2.5835 9.19658 2.5835 10.5425V10.6368C2.5835 11.7476 2.5835 12.3043 2.85087 12.759C3.11825 13.2137 3.6052 13.4836 4.57654 14.0248L8.396 16.1458" stroke="#00C8A0" stroke-width="1.5"/>
<path d="M15.5 20.6667V24.5417" stroke="#00C8A0" stroke-width="1.5" stroke-linecap="round"/>
<path d="M20.0212 28.4167H10.9795L11.4187 26.226C11.4772 25.9333 11.6352 25.6699 11.866 25.4806C12.0968 25.2912 12.386 25.1877 12.6845 25.1875H18.3162C18.6147 25.1877 18.9039 25.2912 19.1346 25.4806C19.3654 25.6699 19.5235 25.9333 19.582 26.226L20.0212 28.4167Z" stroke="#00C8A0" stroke-width="1.5" stroke-linecap="round" stroke-linejoin="round"/>
<path d="M23.25 28.4167H7.75" stroke="#00C8A0" stroke-width="1.5" stroke-linecap="round"/>
</svg>
