<svg width="24" height="19" viewBox="0 0 24 19" fill="none" xmlns="http://www.w3.org/2000/svg">
<path d="M1 18V17C1 15.1435 1.7375 13.363 3.05025 12.0503C4.36301 10.7375 6.14348 10 8 10C9.85652 10 11.637 10.7375 12.9497 12.0503C14.2625 13.363 15 15.1435 15 17V18" stroke="white" stroke-width="1.5" stroke-linecap="round"/>
<path d="M13 12C13 10.6739 13.5268 9.40215 14.4645 8.46447C15.4021 7.52678 16.6739 7 18 7C18.6566 7 19.3068 7.12933 19.9134 7.3806C20.52 7.63188 21.0712 8.00017 21.5355 8.46447C21.9998 8.92876 22.3681 9.47996 22.6194 10.0866C22.8707 10.6932 23 11.3434 23 12V12.5" stroke="white" stroke-width="1.5" stroke-linecap="round"/>
<path d="M8 10C9.06087 10 10.0783 9.57857 10.8284 8.82843C11.5786 8.07828 12 7.06087 12 6C12 4.93913 11.5786 3.92172 10.8284 3.17157C10.0783 2.42143 9.06087 2 8 2C6.93913 2 5.92172 2.42143 5.17157 3.17157C4.42143 3.92172 4 4.93913 4 6C4 7.06087 4.42143 8.07828 5.17157 8.82843C5.92172 9.57857 6.93913 10 8 10ZM18 7C18.7956 7 19.5587 6.68393 20.1213 6.12132C20.6839 5.55871 21 4.79565 21 4C21 3.20435 20.6839 2.44129 20.1213 1.87868C19.5587 1.31607 18.7956 1 18 1C17.2044 1 16.4413 1.31607 15.8787 1.87868C15.3161 2.44129 15 3.20435 15 4C15 4.79565 15.3161 5.55871 15.8787 6.12132C16.4413 6.68393 17.2044 7 18 7Z" stroke="white" stroke-width="1.5" stroke-linecap="round" stroke-linejoin="round"/>
</svg>
