<svg width="23" height="26" viewBox="0 0 23 26" fill="none" xmlns="http://www.w3.org/2000/svg">
<path d="M1.75 23.8749H7.7495V15.6248C7.7495 15.2532 7.87571 14.9417 8.12813 14.6904C8.37946 14.438 8.69092 14.3118 9.0625 14.3118H13.9375C14.3091 14.3118 14.6211 14.438 14.8735 14.6904C15.1248 14.9417 15.2505 15.2532 15.2505 15.6248V23.8749H21.25V9.75039C21.25 9.58356 21.2137 9.43189 21.1411 9.29539C21.0685 9.15889 20.9694 9.03973 20.8438 8.93789L12.0948 2.34364C11.9279 2.19848 11.7297 2.12589 11.5 2.12589C11.2703 2.12589 11.0726 2.19848 10.9069 2.34364L2.15625 8.93789C2.03167 9.04189 1.93254 9.16106 1.85887 9.29539C1.78521 9.42973 1.74892 9.58139 1.75 9.75039V23.8749ZM0.125 23.8749V9.75039C0.125 9.33439 0.218167 8.9406 0.4045 8.56902C0.590833 8.19744 0.847583 7.89139 1.17475 7.65089L9.92538 1.02414C10.3836 0.674227 10.9069 0.499268 11.4951 0.499268C12.0834 0.499268 12.6099 0.674227 13.0746 1.02414L21.8253 7.64927C22.1535 7.88977 22.4102 8.19635 22.5955 8.56902C22.7818 8.9406 22.875 9.33439 22.875 9.75039V23.8749C22.875 24.3104 22.713 24.6901 22.3891 25.014C22.0652 25.3379 21.6855 25.4999 21.25 25.4999H14.9385C14.5658 25.4999 14.2538 25.3742 14.0025 25.1229C13.7512 24.8705 13.6255 24.5585 13.6255 24.1869V15.9384H9.3745V24.1869C9.3745 24.5596 9.24883 24.8716 8.9975 25.1229C8.74617 25.3742 8.43471 25.4999 8.06313 25.4999H1.75C1.3145 25.4999 0.934791 25.3379 0.610875 25.014C0.286958 24.6901 0.125 24.3104 0.125 23.8749Z" fill="#00C8A0"/>
</svg>
