<svg width="28" height="28" viewBox="0 0 28 28" fill="none" xmlns="http://www.w3.org/2000/svg">
<path fill-rule="evenodd" clip-rule="evenodd" d="M13.3263 3.1874C13.7364 2.17273 14.5022 1.3423 15.4805 0.851553C16.4587 0.360803 17.5823 0.243372 18.6408 0.521238C19.6994 0.799104 20.6204 1.45322 21.2315 2.36116C21.8426 3.26909 22.1019 4.36861 21.9608 5.4539C21.8197 6.5392 21.2879 7.53588 20.465 8.2574C19.6421 8.97891 18.5844 9.3758 17.49 9.37378C16.3956 9.37175 15.3394 8.97096 14.5191 8.24641C13.6989 7.52185 13.1708 6.52321 13.0338 5.4374H6.25C5.35489 5.4374 4.49645 5.79298 3.86351 6.42592C3.23058 7.05885 2.875 7.9173 2.875 8.8124C2.875 9.70751 3.23058 10.566 3.86351 11.1989C4.49645 11.8318 5.35489 12.1874 6.25 12.1874H22C23.4918 12.1874 24.9226 12.78 25.9775 13.8349C27.0324 14.8898 27.625 16.3206 27.625 17.8124C27.625 19.3042 27.0324 20.735 25.9775 21.7899C24.9226 22.8448 23.4918 23.4374 22 23.4374H9.59125C9.45417 24.5232 8.92609 25.5219 8.10585 26.2464C7.28561 26.971 6.22943 27.3718 5.135 27.3738C4.04058 27.3758 2.98292 26.9789 2.16001 26.2574C1.33709 25.5359 0.805324 24.5392 0.664235 23.4539C0.523147 22.3686 0.78241 21.2691 1.3935 20.3612C2.00458 19.4532 2.92561 18.7991 3.98417 18.5212C5.04274 18.2434 6.16629 18.3608 7.14452 18.8516C8.12275 19.3423 8.88861 20.1727 9.29875 21.1874H22C22.8951 21.1874 23.7536 20.8318 24.3865 20.1989C25.0194 19.566 25.375 18.7075 25.375 17.8124C25.375 16.9173 25.0194 16.0589 24.3865 15.4259C23.7536 14.793 22.8951 14.4374 22 14.4374H6.25C4.75816 14.4374 3.32742 13.8448 2.27252 12.7899C1.21763 11.735 0.625 10.3042 0.625 8.8124C0.625 7.32056 1.21763 5.88982 2.27252 4.83493C3.32742 3.78004 4.75816 3.1874 6.25 3.1874H13.3263Z" fill="#00C8A0"/>
</svg>
