<svg width="739" height="778" viewBox="0 0 739 778" fill="none" xmlns="http://www.w3.org/2000/svg">
<path d="M2 28.0899L2.86946 33.5604L3.73893 38.61L4.60839 45.3429L5.47786 51.655L6.63714 57.1255L8.95571 61.7543L11.2743 63.0167L15.3318 61.3335L20.5486 58.8087L25.4755 54.6006L30.1127 50.3926L34.7498 47.4469L37.9378 45.3429L39.3869 43.6597L43.4444 40.2933L47.2121 37.7684L50.4002 39.4516L51.8493 41.9765L53.0085 44.5013L57.9355 46.6053L62.2828 48.2886L66.6301 50.3926L71.8469 51.655H75.035H78.223H83.15L88.9464 49.9718L94.7428 51.2342L99.38 52.4966L100.829 49.551V44.9221L101.699 40.2933L102.858 36.9268L105.176 35.2436H107.205L109.524 31.0355L112.132 26.4067L115.03 21.7778L119.667 17.9906L124.015 16.7282L130.681 14.2033H136.477L143.143 16.3074L146.911 17.9906L152.417 21.357L158.214 24.7235L163.141 22.6194L168.937 20.5154L172.415 19.253L179.371 20.9362L183.718 22.6194L184.008 23.4611L189.225 30.1939L192.992 34.402L197.919 37.3476L204.295 39.4516L209.222 38.1892L218.786 35.2436L228.061 31.8772L254.724 25.1443L263.129 21.357L272.113 17.5698L276.751 15.8866L281.388 15.4658L290.372 5.78725L301.965 3.26242L311.239 2L319.644 4.10403L329.208 5.78725L337.033 8.31208L344.859 12.0993L348.336 15.045L350.655 19.253L352.104 24.3027L352.684 25.9859H355.292L358.19 26.4067L360.219 23.8819L361.089 18.8322V12.5201L358.48 28.9315L356.451 41.1349V48.7094L357.031 58.3879L357.611 68.0664V78.1657L355.582 87.0026L352.684 94.9979L347.467 105.939L341.671 118.563L335.874 129.083L331.817 137.078L329.208 142.128L328.629 157.277H334.425L346.018 153.069L354.713 145.495L365.436 137.078L358.77 144.653L347.467 151.386L336.744 157.698L328.629 161.485L326.6 165.693L321.673 178.738L319.644 188.417L319.064 199.358V209.457L319.354 217.873L320.514 227.131L321.093 231.76L327.18 227.131L334.715 221.66L340.511 220.398L343.989 222.923L348.626 223.764L354.133 222.923L356.741 229.656L361.089 228.814L365.726 227.972L369.204 229.235L372.681 231.339L374.71 233.022L377.029 237.651L379.347 242.28L381.086 248.171L385.434 252.8L390.071 257.849L393.549 264.162L394.128 270.894L398.186 276.365L402.243 281.835L408.04 286.885L417.024 290.672L424.849 294.459L431.805 298.668L437 307.5V315.5L444 325.599L445 337L451.5 344.5L457.599 347.481L460.787 356.318L467.453 362.63L475.278 371.467L486.002 377.5L497 381V391.5L491.5 409.339V420V428.5L499 431L511 427L522 428.5L523.968 434V437.5V441.741L517.5 452L514 457.5L511 465.5L515.5 470.777L522 472H525.5L528 474L530.344 478.5L532.663 482.559V491L528 502.5L523.968 516L520 526.323L517.5 535.581L518.5 544.5L520 551.5L523 569.666L525 580.5V586L527 598.701L538.5 595.5L549 584.5L554.5 580.5L563 574.5L570 571.83L578.5 569.306L589.691 567.201L594.618 569.306L599.255 571.83L605.921 578.563L614.616 586.138L621.861 592.029L630.266 597.499L638.671 604.653L645.337 609.282L647.076 610.124L640.99 617.277L635.773 624.852L634.034 630.743L632.005 641.684L630.556 650.942L629.687 657.675V666.511L629.107 673.665V684.606L630.266 695.547L629.107 703.122L632.005 712.8L634.903 725.003L637.222 735.523L639.251 748.568L640.99 756.985L641.859 766.242L648.235 772.975L650.843 775.5L658.089 773.396L661.857 771.713L666.494 767.084L673.739 766.663L679.246 767.084L684.753 772.134L690.839 773.396H694.896L692.868 760.351L691.418 744.781L690.549 727.107V710.275L688.81 699.334L682.724 693.864L675.188 690.497L680.695 687.973L686.202 684.606L690.549 681.24L698.084 665.249L708.518 660.62L720.69 663.145L726.197 662.303H734.892L735.181 663.987L733.443 674.507L734.022 683.764V689.235L735.181 700.597L736.631 709.854L737.5 716.587" stroke="#FF0404" stroke-width="3"/>
</svg>
