<svg width="366" height="47" viewBox="0 0 366 47" fill="none" xmlns="http://www.w3.org/2000/svg">
<path d="M208.882 0H366V47H208.882V0Z" fill="#F7EBFF"/>
<path d="M0 8.70979H11.0314L18.6195 27.3259H19.0021L26.5901 8.70979H37.6215V41.5769H28.9494V22.5756H28.6944L21.4251 41.3201H16.1964L8.92714 22.4472H8.67208V41.5769H0V8.70979Z" fill="#F7EBFF"/>
<path d="M73.4496 25.1434C73.4496 28.8024 72.7429 31.889 71.3294 34.4033C69.916 36.9068 68.0083 38.8059 65.6065 40.1005C63.2047 41.3843 60.5265 42.0263 57.5721 42.0263C54.5964 42.0263 51.9076 41.379 49.5058 40.0844C47.1146 38.7791 45.2122 36.8747 43.7988 34.3712C42.3959 31.8569 41.6945 28.781 41.6945 25.1434C41.6945 21.4843 42.3959 18.403 43.7988 15.8995C45.2122 13.3852 47.1146 11.4862 49.5058 10.2023C51.9076 8.90772 54.5964 8.26043 57.5721 8.26043C60.5265 8.26043 63.2047 8.90772 65.6065 10.2023C68.0083 11.4862 69.916 13.3852 71.3294 15.8995C72.7429 18.403 73.4496 21.4843 73.4496 25.1434ZM64.3312 25.1434C64.3312 23.1748 64.0708 21.5164 63.5501 20.1684C63.04 18.8096 62.2801 17.7825 61.2705 17.0871C60.2715 16.3809 59.0387 16.0279 57.5721 16.0279C56.1055 16.0279 54.8674 16.3809 53.8578 17.0871C52.8588 17.7825 52.0989 18.8096 51.5781 20.1684C51.068 21.5164 50.813 23.1748 50.813 25.1434C50.813 27.112 51.068 28.7756 51.5781 30.1344C52.0989 31.4825 52.8588 32.5096 53.8578 33.2157C54.8674 33.9111 56.1055 34.2589 57.5721 34.2589C59.0387 34.2589 60.2715 33.9111 61.2705 33.2157C62.2801 32.5096 63.04 31.4825 63.5501 30.1344C64.0708 28.7756 64.3312 27.112 64.3312 25.1434Z" fill="#F7EBFF"/>
<path d="M77.5505 41.5769V8.70979H91.6427C94.0658 8.70979 96.186 9.1538 98.0033 10.0418C99.8206 10.9298 101.234 12.2083 102.244 13.8774C103.253 15.5464 103.758 17.5471 103.758 19.8795C103.758 22.2332 103.237 24.2179 102.196 25.8334C101.165 27.449 99.7143 28.6687 97.8438 29.4925C95.984 30.3163 93.8107 30.7282 91.3238 30.7282H82.9068V23.7953H89.5384C90.5799 23.7953 91.4673 23.6669 92.2006 23.4101C92.9445 23.1427 93.5131 22.72 93.9063 22.1423C94.3102 21.5646 94.5121 20.8103 94.5121 19.8795C94.5121 18.938 94.3102 18.173 93.9063 17.5846C93.5131 16.9854 92.9445 16.5468 92.2006 16.2686C91.4673 15.9797 90.5799 15.8353 89.5384 15.8353H86.4139V41.5769H77.5505ZM96.6801 26.4914L104.842 41.5769H95.2135L87.2429 26.4914H96.6801Z" fill="#F7EBFF"/>
<path d="M120.098 41.5769H107.536V8.70979H119.97C123.329 8.70979 126.23 9.36777 128.674 10.6837C131.129 11.989 133.021 13.872 134.349 16.3328C135.689 18.7828 136.358 21.7197 136.358 25.1434C136.358 28.567 135.694 31.5092 134.365 33.97C133.037 36.42 131.156 38.303 128.722 39.619C126.288 40.9243 123.414 41.5769 120.098 41.5769ZM116.4 34.0021H119.779C121.394 34.0021 122.771 33.74 123.908 33.2157C125.056 32.6915 125.927 31.7874 126.522 30.5035C127.128 29.2196 127.431 27.4329 127.431 25.1434C127.431 22.8538 127.123 21.0671 126.506 19.7832C125.901 18.4993 125.008 17.5953 123.828 17.071C122.659 16.5468 121.224 16.2846 119.524 16.2846H116.4V34.0021Z" fill="#F7EBFF"/>
<path d="M172.087 25.1434C172.087 28.8024 171.38 31.889 169.966 34.4033C168.553 36.9068 166.645 38.8059 164.243 40.1005C161.842 41.3843 159.163 42.0263 156.209 42.0263C153.233 42.0263 150.545 41.379 148.143 40.0844C145.752 38.7791 143.849 36.8747 142.436 34.3712C141.033 31.8569 140.331 28.781 140.331 25.1434C140.331 21.4843 141.033 18.403 142.436 15.8995C143.849 13.3852 145.752 11.4862 148.143 10.2023C150.545 8.90772 153.233 8.26043 156.209 8.26043C159.163 8.26043 161.842 8.90772 164.243 10.2023C166.645 11.4862 168.553 13.3852 169.966 15.8995C171.38 18.403 172.087 21.4843 172.087 25.1434ZM162.968 25.1434C162.968 23.1748 162.708 21.5164 162.187 20.1684C161.677 18.8096 160.917 17.7825 159.907 17.0871C158.908 16.3809 157.676 16.0279 156.209 16.0279C154.742 16.0279 153.504 16.3809 152.495 17.0871C151.496 17.7825 150.736 18.8096 150.215 20.1684C149.705 21.5164 149.45 23.1748 149.45 25.1434C149.45 27.112 149.705 28.7756 150.215 30.1344C150.736 31.4825 151.496 32.5096 152.495 33.2157C153.504 33.9111 154.742 34.2589 156.209 34.2589C157.676 34.2589 158.908 33.9111 159.907 33.2157C160.917 32.5096 161.677 31.4825 162.187 30.1344C162.708 28.7756 162.968 27.112 162.968 25.1434Z" fill="#F7EBFF"/>
<path d="M176.187 41.5769V8.70979H190.28C192.703 8.70979 194.823 9.1538 196.64 10.0418C198.458 10.9298 199.871 12.2083 200.881 13.8774C201.89 15.5464 202.395 17.5471 202.395 19.8795C202.395 22.2332 201.874 24.2179 200.833 25.8334C199.802 27.449 198.351 28.6687 196.481 29.4925C194.621 30.3163 192.448 30.7282 189.961 30.7282H181.544V23.7953H188.175C189.217 23.7953 190.104 23.6669 190.838 23.4101C191.581 23.1427 192.15 22.72 192.543 22.1423C192.947 21.5646 193.149 20.8103 193.149 19.8795C193.149 18.938 192.947 18.173 192.543 17.5846C192.15 16.9854 191.581 16.5468 190.838 16.2686C190.104 15.9797 189.217 15.8353 188.175 15.8353H185.051V41.5769H176.187ZM195.317 26.4914L203.479 41.5769H193.85L185.88 26.4914H195.317Z" fill="#F7EBFF"/>
<path d="M223.406 41.5769L213.777 8.70979H223.661L228.124 28.9308H228.379L233.672 8.70979H241.451L246.744 28.995H246.999L251.462 8.70979H261.346L251.717 41.5769H243.237L237.689 23.2175H237.434L231.886 41.5769H223.406Z" fill="#272629"/>
<path d="M268.882 41.5769H259.317L270.094 8.70979H282.209L292.986 41.5769H283.421L276.279 17.7611H276.024L268.882 41.5769ZM267.097 28.6098H285.079V35.2859H267.097V28.6098Z" fill="#272629"/>
<path d="M296.13 41.5769V8.70979H304.993V34.3872H318.193V41.5769H296.13Z" fill="#272629"/>
<path d="M321.776 41.5769V8.70979H330.639V21.9979H331.085L340.905 8.70979H351.235L340.204 23.3459L351.49 41.5769H340.905L333.572 29.2517L330.639 33.1034V41.5769H321.776Z" fill="#272629"/>
</svg>
