<svg width="31" height="31" viewBox="0 0 31 31" fill="none" xmlns="http://www.w3.org/2000/svg">
<path fill-rule="evenodd" clip-rule="evenodd" d="M15.4998 0.916504C17.4149 0.916495 19.3113 1.2937 21.0806 2.02657C22.85 2.75945 24.4576 3.83365 25.8118 5.18783C27.166 6.54202 28.2402 8.14967 28.9731 9.91901C29.706 11.6883 30.0832 13.5847 30.0832 15.4998C30.0832 23.554 23.554 30.0832 15.4998 30.0832C7.44571 30.0832 0.916504 23.554 0.916504 15.4998C0.916504 7.44571 7.44571 0.916504 15.4998 0.916504ZM16.9582 16.9582H14.0415C10.4311 16.9582 7.33148 19.1448 5.99458 22.2662C8.10989 25.2323 11.579 27.1665 15.4998 27.1665C19.4206 27.1665 22.8897 25.2323 25.0051 22.266C23.6682 19.1448 20.5686 16.9582 16.9582 16.9582ZM15.4998 5.2915C13.0836 5.2915 11.1248 7.25027 11.1248 9.6665C11.1248 12.0827 13.0836 14.0415 15.4998 14.0415C17.916 14.0415 19.8748 12.0827 19.8748 9.6665C19.8748 7.25027 17.9161 5.2915 15.4998 5.2915Z" fill="#F7EBFF"/>
</svg>
